<?xml version="1.0" encoding="utf-8"?>
<!-- Generator: Adobe Illustrator 25.0.1, SVG Export Plug-In . SVG Version: 6.00 Build 0)  -->
<svg version="1.1" id="Layer_1" xmlns="http://www.w3.org/2000/svg" xmlns:xlink="http://www.w3.org/1999/xlink" x="0px" y="0px"
	 viewBox="0 0 537 540" style="enable-background:new 0 0 537 540;" xml:space="preserve">
<style type="text/css">
	.st0{fill:none;stroke:#99106F;stroke-width:67;stroke-linecap:round;stroke-miterlimit:10;}
	.st1{fill:none;stroke:#000000;stroke-width:0.5;stroke-miterlimit:10;}
	.st2{fill:#FFFFFF;}
	.st3{font-family:'BernardMT-Condensed';}
	.st4{font-size:103.6014px;}
</style>
<path class="st0" d="M316,35.5c-11,39-39,52-56,52h-82.93c-18.22,0-35.06,9.72-44.17,25.5L41.97,270.5c-9.11,15.78-9.11,35.22,0,51
	L132.9,479c9.11,15.78,25.95,25.5,44.17,25.5h181.87c18.22,0,35.06-9.72,44.17-25.5l90.93-157.5c9.11-15.78,9.11-35.22,0-51
	c-25.58-32.49-37.53-45-39.03-63c-1.5-14,0-25,17-34"/>
<g>
	<path class="st2" d="M242.91,262.39c31.09-23.39,52.75-30.97,65.16-30.97c9.2,0,17.22,3,24.06,9c6.84,6,10.27,13.92,10.27,23.77
		v134.17c0,3.47,5.12,5.96,7.37,7.45c3.21,2.16,7.81,5.25,7.81,9.28c0,4.5-0.38,7.36-1.12,8.58c-0.75,1.22-9.46,1.83-12.13,1.83
		h-40.91c-3.53,0-6.79-2.25-9.79-6.75c-3-4.5-4.49-9.84-4.49-16.03V271.78c0-2.44-0.94-4.66-2.81-6.68
		c-1.87-2.02-8.09-3.02-10.66-3.02c-4.07,0-20.67,5.92-32.76,17.47v118.81c0,3.09,6.44,5.86,9.33,8.3c2.89,2.53,4.33,4.69,4.33,6.47
		c0,6.47-0.22,10.15-0.64,11.04c-0.43,0.89-7.51,1.34-11.26,1.34H180.6c-2.46,0-4.12-0.44-4.97-1.34c-0.86-0.89-1.28-2.98-1.28-6.26
		c0-4.03,0.24-6.59,0.72-7.67c0.48-1.08,1.79-2.32,3.93-3.73c3.1-1.97,10.65-4.69,10.65-8.16V225.79c0-6.28-7.3-14.8-11.9-15.55
		c-2.46-0.47-3.69-1.73-3.69-3.8v-9.99C174,193,184.33,192,187,192h48c3.96,0,7.91,3.19,7.91,6.57V262.39z"/>
</g>
<text transform="matrix(0.9821 0.1885 -0.1885 0.9821 321.9957 205.9068)" class="st2 st3 st4">2</text>
</svg>
